<svg id="Layer_2" data-name="Layer 2" xmlns="http://www.w3.org/2000/svg" viewBox="0 0 480.93 711.17"><defs><style>.cls-1{fill:#fff;}</style></defs><title>estrellas para la web done</title><circle class="cls-1" cx="209.15" cy="171.4" r="2.08" transform="translate(-78.82 0.1) rotate(-12.53)"/><circle class="cls-1" cx="221.17" cy="260.83" r="1.43" transform="translate(-97.93 4.84) rotate(-12.53)"/><circle class="cls-1" cx="234.5" cy="332.95" r="1.43" transform="translate(-113.26 9.45) rotate(-12.53)"/><circle class="cls-1" cx="208.13" cy="374.58" r="1.43" transform="translate(-122.92 4.72) rotate(-12.53)"/><circle class="cls-1" cx="115.25" cy="423.95" r="1.43" transform="translate(-135.84 -14.25) rotate(-12.53)"/><circle class="cls-1" cx="61.38" cy="449.27" r="1.43" transform="translate(-142.62 -25.34) rotate(-12.53)"/><circle class="cls-1" cx="48.13" cy="474.83" r="1.51" transform="translate(-119.44 -36.2) rotate(-8.89)"/><circle class="cls-1" cx="88.17" cy="519" r="1.51" transform="translate(-399.65 182.46) rotate(-47.3)"/><circle class="cls-1" cx="153.56" cy="573.62" r="1.51" transform="translate(-448.19 313.46) rotate(-54.22)"/><circle class="cls-1" cx="254.22" cy="680.98" r="0.7" transform="translate(-487.42 844.5) rotate(-86.56)"/><circle class="cls-1" cx="363.32" cy="759.26" r="1.26" transform="matrix(0.58, -0.81, 0.81, 0.58, -511.69, 560.72)"/><circle class="cls-1" cx="390.57" cy="737.83" r="2.39" transform="translate(-482.98 573.92) rotate(-54.22)"/><circle class="cls-1" cx="448.86" cy="696.72" r="0.68" transform="translate(-256.03 143.81) rotate(-19.79)"/><circle class="cls-1" cx="471" cy="653.08" r="1" transform="translate(-380.82 603.98) rotate(-54.22)"/><circle class="cls-1" cx="482.92" cy="559.49" r="0.97" transform="translate(-299.95 574.78) rotate(-54.22)"/><circle class="cls-1" cx="495.85" cy="543.25" r="0.86" transform="translate(-281.41 578.52) rotate(-54.22)"/><circle class="cls-1" cx="495.57" cy="519.16" r="1.01" transform="translate(-261.98 568.29) rotate(-54.22)"/><circle class="cls-1" cx="512.25" cy="496.66" r="1.35" transform="translate(-236.79 572.48) rotate(-54.22)"/><circle class="cls-1" cx="526.73" cy="460.33" r="0.82" transform="translate(-201.3 569.14) rotate(-54.22)"/><circle class="cls-1" cx="514.4" cy="421.83" r="0.72" transform="translate(-175.19 543.14) rotate(-54.22)"/><circle class="cls-1" cx="502.4" cy="397.2" r="0.98" transform="translate(-160.2 523.18) rotate(-54.22)"/><circle class="cls-1" cx="504.68" cy="373.9" r="0.73" transform="translate(-140.35 515.36) rotate(-54.22)"/><circle class="cls-1" cx="505.32" cy="340.54" r="1.39" transform="translate(-113.02 502.01) rotate(-54.22)"/><circle class="cls-1" cx="502.44" cy="322.35" r="0.59" transform="translate(-99.46 492.13) rotate(-54.22)"/><circle class="cls-1" cx="521.53" cy="309.62" r="0.78" transform="matrix(0.58, -0.81, 0.81, 0.58, -81.2, 502.32)"/><circle class="cls-1" cx="524.44" cy="294.68" r="0.81" transform="translate(-67.87 498.49) rotate(-54.22)"/><circle class="cls-1" cx="517.56" cy="281.51" r="0.77" transform="translate(-60.05 487.43) rotate(-54.22)"/><circle class="cls-1" cx="505.4" cy="249.68" r="0.9" transform="translate(-39.28 464.35) rotate(-54.22)"/><circle class="cls-1" cx="507.15" cy="230.18" r="0.75" transform="translate(-22.73 457.67) rotate(-54.22)"/><circle class="cls-1" cx="518.08" cy="219.18" r="0.91" transform="translate(-9.27 461.97) rotate(-54.22)"/><circle class="cls-1" cx="516.55" cy="202.15" r="1.03" transform="translate(-72.33 36.01) rotate(-9.22)"/><circle class="cls-1" cx="509.72" cy="150.18" r="0.7" transform="translate(43.24 426.53) rotate(-54.22)"/><circle class="cls-1" cx="483.99" cy="98.02" r="1.15" transform="translate(74.87 384) rotate(-54.22)"/><circle class="cls-1" cx="396.47" cy="50.59" r="1.24" transform="translate(77 293.29) rotate(-54.22)"/><circle class="cls-1" cx="329.45" cy="51.43" r="0.71" transform="translate(48.48 239.28) rotate(-54.22)"/><circle class="cls-1" cx="222.44" cy="130.51" r="0.89" transform="translate(-56.15 193.84) rotate(-56.31)"/><circle class="cls-1" cx="331.4" cy="758.58" r="0.58" transform="translate(-524.38 534.54) rotate(-54.22)"/></svg>